<svg width="25" height="24" viewBox="0 0 25 24" fill="none" xmlns="http://www.w3.org/2000/svg">
<rect x="0.5" width="24" height="24" rx="12" fill="#D94F4F"/>
<path d="M8 17.76L12.5 13.26L17 17.76L18.26 16.5L13.76 12L18.26 7.5L17 6.24L12.5 10.74L8 6.24L6.74 7.5L11.24 12L6.74 16.5L8 17.76ZM12.5 24C10.86 24 9.31 23.685 7.85 23.055C6.39 22.425 5.115 21.565 4.025 20.475C2.935 19.385 2.075 18.11 1.445 16.65C0.815 15.19 0.5 13.64 0.5 12C0.5 10.34 0.815 8.78 1.445 7.32C2.075 5.86 2.935 4.59 4.025 3.51C5.115 2.43 6.39 1.575 7.85 0.945C9.31 0.315 10.86 0 12.5 0C14.16 0 15.72 0.315 17.18 0.945C18.64 1.575 19.91 2.43 20.99 3.51C22.07 4.59 22.925 5.86 23.555 7.32C24.185 8.78 24.5 10.34 24.5 12C24.5 13.64 24.185 15.19 23.555 16.65C22.925 18.11 22.07 19.385 20.99 20.475C19.91 21.565 18.64 22.425 17.18 23.055C15.72 23.685 14.16 24 12.5 24ZM12.5 22.2C15.34 22.2 17.75 21.205 19.73 19.215C21.71 17.225 22.7 14.82 22.7 12C22.7 9.16 21.71 6.75 19.73 4.77C17.75 2.79 15.34 1.8 12.5 1.8C9.68 1.8 7.275 2.79 5.285 4.77C3.295 6.75 2.3 9.16 2.3 12C2.3 14.82 3.295 17.225 5.285 19.215C7.275 21.205 9.68 22.2 12.5 22.2Z" fill="white"/>
</svg>
